<svg xmlns="http://www.w3.org/2000/svg" xmlns:xlink="http://www.w3.org/1999/xlink" xmlns:inkscape="http://www.inkscape.org/namespaces/inkscape" version="1.1" width="310.217" height="114.465" viewBox="0 0 310.217 114.465">
<path transform="matrix(1,0,0,-1,48.728,57.232999)" d="M9.76721 46.77213H-9.76721C-11.41792 46.77213-12.75604 45.434-12.75604 43.7833V24.24886C-12.75604 22.59814-11.41792 21.26003-9.76721 21.26003H9.76721C11.41792 21.26003 12.75604 22.59814 12.75604 24.24886V43.7833C12.75604 45.434 11.41792 46.77213 9.76721 46.77213ZM-12.75604 21.26003" fill="#ffffff"/>
<path transform="matrix(1,0,0,-1,48.728,57.232999)" stroke-width=".99628" stroke-linecap="butt" stroke-miterlimit="10" stroke-linejoin="miter" fill="none" stroke="#394149" d="M9.76721 46.77213H-9.76721C-11.41792 46.77213-12.75604 45.434-12.75604 43.7833V24.24886C-12.75604 22.59814-11.41792 21.26003-9.76721 21.26003H9.76721C11.41792 21.26003 12.75604 22.59814 12.75604 24.24886V43.7833C12.75604 45.434 11.41792 46.77213 9.76721 46.77213ZM-12.75604 21.26003"/>
<path transform="matrix(1,0,0,-1,48.728,57.232999)" d="M-15.7447 12.75604H-35.27916C-36.92987 12.75604-38.26799 11.41792-38.26799 9.76721V-9.76721C-38.26799-11.41792-36.92987-12.75604-35.27916-12.75604H-15.7447C-14.09401-12.75604-12.75587-11.41792-12.75587-9.76721V9.76721C-12.75587 11.41792-14.09401 12.75604-15.7447 12.75604ZM-38.26799-12.75604" fill="#ffffff"/>
<path transform="matrix(1,0,0,-1,48.728,57.232999)" stroke-width=".99628" stroke-linecap="butt" stroke-miterlimit="10" stroke-linejoin="miter" fill="none" stroke="#394149" d="M-15.7447 12.75604H-35.27916C-36.92987 12.75604-38.26799 11.41792-38.26799 9.76721V-9.76721C-38.26799-11.41792-36.92987-12.75604-35.27916-12.75604H-15.7447C-14.09401-12.75604-12.75587-11.41792-12.75587-9.76721V9.76721C-12.75587 11.41792-14.09401 12.75604-15.7447 12.75604ZM-38.26799-12.75604"/>
<path transform="matrix(1,0,0,-1,48.728,57.232999)" d="M38.11403 18.42532H18.57957C16.92886 18.42532 15.59074 17.0872 15.59074 15.4365V-4.09795C15.59074-5.74866 16.92886-7.08678 18.57957-7.08678H38.11403C39.76474-7.08678 41.10286-5.74866 41.10286-4.09795V15.4365C41.10286 17.0872 39.76474 18.42532 38.11403 18.42532ZM15.59074-7.08678" fill="#ffffff"/>
<path transform="matrix(1,0,0,-1,48.728,57.232999)" stroke-width=".99628" stroke-linecap="butt" stroke-miterlimit="10" stroke-linejoin="miter" fill="none" stroke="#394149" d="M38.11403 18.42532H18.57957C16.92886 18.42532 15.59074 17.0872 15.59074 15.4365V-4.09795C15.59074-5.74866 16.92886-7.08678 18.57957-7.08678H38.11403C39.76474-7.08678 41.10286-5.74866 41.10286-4.09795V15.4365C41.10286 17.0872 39.76474 18.42532 38.11403 18.42532ZM15.59074-7.08678"/>
<path transform="matrix(1,0,0,-1,48.728,57.232999)" d="M4.09795-21.26003H-15.4365C-17.0872-21.26003-18.42532-22.59814-18.42532-24.24886V-43.7833C-18.42532-45.434-17.0872-46.77213-15.4365-46.77213H4.09795C5.74866-46.77213 7.08678-45.434 7.08678-43.7833V-24.24886C7.08678-22.59814 5.74866-21.26003 4.09795-21.26003ZM-18.42532-46.77213" fill="#ffffff"/>
<path transform="matrix(1,0,0,-1,48.728,57.232999)" stroke-width=".99628" stroke-linecap="butt" stroke-miterlimit="10" stroke-linejoin="miter" fill="none" stroke="#394149" d="M4.09795-21.26003H-15.4365C-17.0872-21.26003-18.42532-22.59814-18.42532-24.24886V-43.7833C-18.42532-45.434-17.0872-46.77213-15.4365-46.77213H4.09795C5.74866-46.77213 7.08678-45.434 7.08678-43.7833V-24.24886C7.08678-22.59814 5.74866-21.26003 4.09795-21.26003ZM-18.42532-46.77213"/>
<path transform="matrix(1,0,0,-1,48.728,57.232999)" stroke-width=".99628" stroke-linecap="round" stroke-miterlimit="10" stroke-linejoin="miter" fill="none" stroke="#394149" d="M-9.9394 20.76189-15.57372 13.25418"/>
<path transform="matrix(1,0,0,-1,48.728,57.232999)" stroke-width=".99628" stroke-linecap="round" stroke-miterlimit="10" stroke-linejoin="miter" fill="none" stroke="#394149" d="M13.25418 20.76534 15.09465 18.92346"/>
<path transform="matrix(1,0,0,-1,48.728,57.232999)" stroke-width=".99628" stroke-linecap="round" stroke-miterlimit="10" stroke-linejoin="miter" fill="none" stroke="#394149" d="M-1.10362 20.76189-4.56563-20.76189"/>
<path transform="matrix(1,0,0,-1,48.728,57.232999)" stroke-width=".99628" stroke-linecap="round" stroke-miterlimit="10" stroke-linejoin="miter" fill="none" stroke="#394149" d="M-12.25774 1.39424 15.0926 4.27461"/>
<path transform="matrix(1,0,0,-1,48.728,57.232999)" stroke-width=".99628" stroke-linecap="round" stroke-miterlimit="10" stroke-linejoin="miter" fill="none" stroke="#394149" d="M-17.78122-13.25418-13.39899-20.76189"/>
<path transform="matrix(1,0,0,-1,48.728,57.232999)" stroke-width=".99628" stroke-linecap="round" stroke-miterlimit="10" stroke-linejoin="miter" fill="none" stroke="#394149" d="M16.98642-7.58492 5.68968-20.76189"/>
<text fill="#394149" xml:space="preserve" transform="matrix(1 0 -0 1 0 114.465)" font-size="99.6264" font-family="URWPalladioL"><tspan y="-27.095" x="108.941 166.92357 214.64463 247.12284">netz</tspan></text>
</svg>
