<svg xmlns="http://www.w3.org/2000/svg" xmlns:xlink="http://www.w3.org/1999/xlink" xmlns:inkscape="http://www.inkscape.org/namespaces/inkscape" version="1.1" width="95.846" height="61.426" viewBox="0 0 95.846 61.426">
<path transform="matrix(1,0,0,-1,26.461,27.877999)" d="M2.96812 17.71663H-2.96812C-4.06859 17.71663-4.96068 16.82455-4.96068 15.72408V9.78783C-4.96068 8.68736-4.06859 7.79527-2.96812 7.79527H2.96812C4.06859 7.79527 4.96068 8.68736 4.96068 9.78783V15.72408C4.96068 16.82455 4.06859 17.71663 2.96812 17.71663ZM-4.96068 7.79527" fill="#ffffff"/>
<path transform="matrix(1,0,0,-1,26.461,27.877999)" stroke-width=".3985" stroke-linecap="butt" stroke-miterlimit="10" stroke-linejoin="miter" fill="none" stroke="#394149" d="M2.96812 17.71663H-2.96812C-4.06859 17.71663-4.96068 16.82455-4.96068 15.72408V9.78783C-4.96068 8.68736-4.06859 7.79527-2.96812 7.79527H2.96812C4.06859 7.79527 4.96068 8.68736 4.96068 9.78783V15.72408C4.96068 16.82455 4.06859 17.71663 2.96812 17.71663ZM-4.96068 7.79527"/>
<path transform="matrix(1,0,0,-1,26.461,27.877999)" d="M-8.3704 2.12582H-14.30667C-15.40714 2.12582-16.29922 1.23373-16.29922 .13327V-5.80296C-16.29922-6.90344-15.40714-7.79552-14.30667-7.79552H-8.3704C-7.26994-7.79552-6.37785-6.90344-6.37785-5.80296V.13327C-6.37785 1.23373-7.26994 2.12582-8.3704 2.12582ZM-16.29922-7.79552" fill="#ffffff"/>
<path transform="matrix(1,0,0,-1,26.461,27.877999)" stroke-width=".3985" stroke-linecap="butt" stroke-miterlimit="10" stroke-linejoin="miter" fill="none" stroke="#394149" d="M-8.3704 2.12582H-14.30667C-15.40714 2.12582-16.29922 1.23373-16.29922 .13327V-5.80296C-16.29922-6.90344-15.40714-7.79552-14.30667-7.79552H-8.3704C-7.26994-7.79552-6.37785-6.90344-6.37785-5.80296V.13327C-6.37785 1.23373-7.26994 2.12582-8.3704 2.12582ZM-16.29922-7.79552"/>
<path transform="matrix(1,0,0,-1,26.461,27.877999)" d="M15.72408 4.96068H9.78783C8.68736 4.96068 7.79527 4.06859 7.79527 2.96812V-2.96812C7.79527-4.06859 8.68736-4.96068 9.78783-4.96068H15.72408C16.82455-4.96068 17.71663-4.06859 17.71663-2.96812V2.96812C17.71663 4.06859 16.82455 4.96068 15.72408 4.96068ZM7.79527-4.96068" fill="#ffffff"/>
<path transform="matrix(1,0,0,-1,26.461,27.877999)" stroke-width=".3985" stroke-linecap="butt" stroke-miterlimit="10" stroke-linejoin="miter" fill="none" stroke="#394149" d="M15.72408 4.96068H9.78783C8.68736 4.96068 7.79527 4.06859 7.79527 2.96812V-2.96812C7.79527-4.06859 8.68736-4.96068 9.78783-4.96068H15.72408C16.82455-4.96068 17.71663-4.06859 17.71663-2.96812V2.96812C17.71663 4.06859 16.82455 4.96068 15.72408 4.96068ZM7.79527-4.96068"/>
<path transform="matrix(1,0,0,-1,26.461,27.877999)" d="M.13327-13.46455H-5.80296C-6.90344-13.46455-7.79552-14.35663-7.79552-15.4571V-21.39336C-7.79552-22.49382-6.90344-23.38591-5.80296-23.38591H.13327C1.23373-23.38591 2.12582-22.49382 2.12582-21.39336V-15.4571C2.12582-14.35663 1.23373-13.46455 .13327-13.46455ZM-7.79552-23.38591" fill="#ffffff"/>
<path transform="matrix(1,0,0,-1,26.461,27.877999)" stroke-width=".3985" stroke-linecap="butt" stroke-miterlimit="10" stroke-linejoin="miter" fill="none" stroke="#394149" d="M.13327-13.46455H-5.80296C-6.90344-13.46455-7.79552-14.35663-7.79552-15.4571V-21.39336C-7.79552-22.49382-6.90344-23.38591-5.80296-23.38591H.13327C1.23373-23.38591 2.12582-22.49382 2.12582-21.39336V-15.4571C2.12582-14.35663 1.23373-13.46455 .13327-13.46455ZM-7.79552-23.38591"/>
<path transform="matrix(1,0,0,-1,26.461,27.877999)" stroke-width=".3985" stroke-linecap="round" stroke-miterlimit="10" stroke-linejoin="miter" fill="none" stroke="#394149" d="M-3.75269 7.59602-7.58678 2.32507"/>
<path transform="matrix(1,0,0,-1,26.461,27.877999)" stroke-width=".3985" stroke-linecap="round" stroke-miterlimit="10" stroke-linejoin="miter" fill="none" stroke="#394149" d="M5.15993 7.59642 7.59659 5.15993"/>
<path transform="matrix(1,0,0,-1,26.461,27.877999)" stroke-width=".3985" stroke-linecap="round" stroke-miterlimit="10" stroke-linejoin="miter" fill="none" stroke="#394149" d="M-.46909 7.59602-2.36598-13.2653"/>
<path transform="matrix(1,0,0,-1,26.461,27.877999)" stroke-width=".3985" stroke-linecap="round" stroke-miterlimit="10" stroke-linejoin="miter" fill="none" stroke="#394149" d="M-6.1786-2.22781 7.59602-.60687"/>
<path transform="matrix(1,0,0,-1,26.461,27.877999)" stroke-width=".3985" stroke-linecap="round" stroke-miterlimit="10" stroke-linejoin="miter" fill="none" stroke="#394149" d="M-8.52411-7.99477-5.64864-13.2653"/>
<path transform="matrix(1,0,0,-1,26.461,27.877999)" stroke-width=".3985" stroke-linecap="round" stroke-miterlimit="10" stroke-linejoin="miter" fill="none" stroke="#394149" d="M8.38953-5.15993 1.53049-13.2653"/>
<text fill="#394149" xml:space="preserve" transform="matrix(1 0 -0 1 0 61.425996)" font-size="14.3462" font-family="URWPalladioL"><tspan y="-26.373" x="55.492 63.841489 70.71332 75.39018">netz</tspan></text>
</svg>
