<svg xmlns="http://www.w3.org/2000/svg" xmlns:xlink="http://www.w3.org/1999/xlink" xmlns:inkscape="http://www.inkscape.org/namespaces/inkscape" version="1.1" width="272.618" height="114.465" viewBox="0 0 272.618 114.465">
<defs>
<path id="font_0_1" d="M.4099884-.0029296876C.47099305 0 .47200013 0 .4889984 0 .5029907 .000061035159 .5029907 .000061035159 .57199099-.0029296876V.027069092L.5309906 .030059815C.49699403 .032058717 .49398805 .03807068 .49398805 .1020813V.29515077C.49398805 .41220094 .43899537 .4691925 .32699586 .4691925 .2899933 .4691925 .2689972 .46218873 .24798584 .4441986L.17199707 .3781891V.4651947L.16299439 .46920777C.11199951 .44821168 .05999756 .4342041 .0069885256 .4282074V.40019227H.04399109C.083999637 .40019227 .08799744 .39318849 .08799744 .3271637V.1020813C.08799744 .0390625 .084991458 .032058717 .050994874 .030059815L.005996704 .027069092V-.0029296876C.07398987-.0010070801 .100997928 0 .12998963 0 .15899658 .000061035159 .18598938-.00093078616 .2539978-.0029296876V.027069092L.20899964 .030059815C.1749878 .032058717 .17199707 .0390625 .17199707 .1020813V.3141632C.17199707 .35917665 .23799134 .40820313 .29899598 .40820313 .3659973 .40820313 .4099884 .35816957 .4099884 .2811432V-.0029296876Z"/>
<path id="font_0_4" d="M.43699647 .07046509 .42399598 .080459598C.3600006 .04246521 .33699037 .033462526 .2939911 .033462526 .22898865 .033462526 .1749878 .062454225 .14698792 .111465457 .12799073 .14445496 .12098694 .17245484 .11898804 .23046875H.2649994C.33399964 .23046875 .3769989 .23345948 .44599916 .24446106 .44699098 .25846864 .44799806 .26745606 .44799806 .27946473 .44799806 .39450074 .37399293 .46951295 .2619934 .46951295 .22499085 .46951295 .18199158 .45651246 .14099121 .43251039 .05899048 .38549806 .025985718 .32348634 .025985718 .21946717 .025985718 .15646363 .040985109 .10246277 .067993167 .064468387 .10798645 .011459351 .1749878-.01953125 .25-.01953125 .2869873-.01953125 .32398988-.0115356449 .36499024 .006454468 .3919983 .017456055 .41299439 .030456543 .4169922 .036468507L.43699647 .07046509M.35899354 .26745606C.30699159 .26545716 .2829895 .26446534 .24699402 .26446534 .20098877 .26446534 .1749878 .26545716 .12098694 .27046205 .12098694 .31747438 .125 .33947755 .13798523 .36549378 .15899658 .40950013 .20199585 .43652345 .25 .43652345 .2829895 .43652345 .30899049 .4235077 .32699586 .39649964 .34899903 .36349488 .35598756 .33448792 .35899354 .26745606Z"/>
<path id="font_0_2" d="M.09799194 .38227845V.0942688C.09799194 .02027893 .1309967-.01171875 .20799256-.01171875 .23098755-.01171875 .25498963-.006729126 .26098634 .0002746582L.30899049 .053268434 .29599 .07026672C.2709961 .056274415 .2559967 .05126953 .23699951 .05126953 .19799805 .05126953 .18199158 .0712738 .18199158 .120269779V.38227845H.30999757L.31900025 .4362793 .18199158 .43026734V.46827699C.18199158 .51026919 .18499756 .5462799 .19299317 .61027529L.18099976 .62127688C.15699768 .60627749 .1269989 .593277 .09599304 .5832672 .09899902 .55326846 .099990848 .53427127 .099990848 .50427249V.4342804L.021987915 .39927674V.37828065L.09799194 .38227845Z"/>
<path id="font_0_3" d="M.45498658 .43197633V.4619751C.3849945 .4599762 .35499574 .45898438 .31698609 .45898438L.068984989 .4619751C.066986087 .41098023 .06599426 .39898683 .05999756 .33000184H.08999634L.101989749 .39797975C.10598755 .41897584 .12399292 .4239807 .19799805 .4239807H.34098817C.31999208 .3909912 .30299378 .36799623 .27598573 .33399964L.10598755 .122039798C.08198547 .093048099 .067993167 .076049808 .015991211 .017059327L.021987915-.0029296876C.12599182 0 .13198853 0 .1749878 0L.45098878-.0029296876C.45098878 .020065308 .45298768 .044067384 .45999146 .092056278L.46598817 .1390686H.43598939L.41799928 .060058595C.4139862 .041992189 .37199403 .034988405 .27598573 .034988405H.14099121L.45498658 .43197633Z"/>
</defs>
<path transform="matrix(1,0,0,-1,48.728,57.232999)" d="M9.76721 46.77213H-9.76721C-11.41792 46.77213-12.75604 45.434-12.75604 43.7833V24.24886C-12.75604 22.59814-11.41792 21.26003-9.76721 21.26003H9.76721C11.41792 21.26003 12.75604 22.59814 12.75604 24.24886V43.7833C12.75604 45.434 11.41792 46.77213 9.76721 46.77213ZM-12.75604 21.26003" fill="#ffffff"/>
<path transform="matrix(1,0,0,-1,48.728,57.232999)" stroke-width=".99628" stroke-linecap="butt" stroke-miterlimit="10" stroke-linejoin="miter" fill="none" stroke="#394149" d="M9.76721 46.77213H-9.76721C-11.41792 46.77213-12.75604 45.434-12.75604 43.7833V24.24886C-12.75604 22.59814-11.41792 21.26003-9.76721 21.26003H9.76721C11.41792 21.26003 12.75604 22.59814 12.75604 24.24886V43.7833C12.75604 45.434 11.41792 46.77213 9.76721 46.77213ZM-12.75604 21.26003"/>
<path transform="matrix(1,0,0,-1,48.728,57.232999)" d="M-15.7447 12.75604H-35.27916C-36.92987 12.75604-38.26799 11.41792-38.26799 9.76721V-9.76721C-38.26799-11.41792-36.92987-12.75604-35.27916-12.75604H-15.7447C-14.09401-12.75604-12.75587-11.41792-12.75587-9.76721V9.76721C-12.75587 11.41792-14.09401 12.75604-15.7447 12.75604ZM-38.26799-12.75604" fill="#ffffff"/>
<path transform="matrix(1,0,0,-1,48.728,57.232999)" stroke-width=".99628" stroke-linecap="butt" stroke-miterlimit="10" stroke-linejoin="miter" fill="none" stroke="#394149" d="M-15.7447 12.75604H-35.27916C-36.92987 12.75604-38.26799 11.41792-38.26799 9.76721V-9.76721C-38.26799-11.41792-36.92987-12.75604-35.27916-12.75604H-15.7447C-14.09401-12.75604-12.75587-11.41792-12.75587-9.76721V9.76721C-12.75587 11.41792-14.09401 12.75604-15.7447 12.75604ZM-38.26799-12.75604"/>
<path transform="matrix(1,0,0,-1,48.728,57.232999)" d="M38.11403 18.42532H18.57957C16.92886 18.42532 15.59074 17.0872 15.59074 15.4365V-4.09795C15.59074-5.74866 16.92886-7.08678 18.57957-7.08678H38.11403C39.76474-7.08678 41.10286-5.74866 41.10286-4.09795V15.4365C41.10286 17.0872 39.76474 18.42532 38.11403 18.42532ZM15.59074-7.08678" fill="#ffffff"/>
<path transform="matrix(1,0,0,-1,48.728,57.232999)" stroke-width=".99628" stroke-linecap="butt" stroke-miterlimit="10" stroke-linejoin="miter" fill="none" stroke="#394149" d="M38.11403 18.42532H18.57957C16.92886 18.42532 15.59074 17.0872 15.59074 15.4365V-4.09795C15.59074-5.74866 16.92886-7.08678 18.57957-7.08678H38.11403C39.76474-7.08678 41.10286-5.74866 41.10286-4.09795V15.4365C41.10286 17.0872 39.76474 18.42532 38.11403 18.42532ZM15.59074-7.08678"/>
<path transform="matrix(1,0,0,-1,48.728,57.232999)" d="M4.09795-21.26003H-15.4365C-17.0872-21.26003-18.42532-22.59814-18.42532-24.24886V-43.7833C-18.42532-45.434-17.0872-46.77213-15.4365-46.77213H4.09795C5.74866-46.77213 7.08678-45.434 7.08678-43.7833V-24.24886C7.08678-22.59814 5.74866-21.26003 4.09795-21.26003ZM-18.42532-46.77213" fill="#ffffff"/>
<path transform="matrix(1,0,0,-1,48.728,57.232999)" stroke-width=".99628" stroke-linecap="butt" stroke-miterlimit="10" stroke-linejoin="miter" fill="none" stroke="#394149" d="M4.09795-21.26003H-15.4365C-17.0872-21.26003-18.42532-22.59814-18.42532-24.24886V-43.7833C-18.42532-45.434-17.0872-46.77213-15.4365-46.77213H4.09795C5.74866-46.77213 7.08678-45.434 7.08678-43.7833V-24.24886C7.08678-22.59814 5.74866-21.26003 4.09795-21.26003ZM-18.42532-46.77213"/>
<path transform="matrix(1,0,0,-1,48.728,57.232999)" stroke-width=".99628" stroke-linecap="round" stroke-miterlimit="10" stroke-linejoin="miter" fill="none" stroke="#394149" d="M-9.9394 20.76189-15.57372 13.25418"/>
<path transform="matrix(1,0,0,-1,48.728,57.232999)" stroke-width=".99628" stroke-linecap="round" stroke-miterlimit="10" stroke-linejoin="miter" fill="none" stroke="#394149" d="M13.25418 20.76534 15.09465 18.92346"/>
<path transform="matrix(1,0,0,-1,48.728,57.232999)" stroke-width=".99628" stroke-linecap="round" stroke-miterlimit="10" stroke-linejoin="miter" fill="none" stroke="#394149" d="M-1.10362 20.76189-4.56563-20.76189"/>
<path transform="matrix(1,0,0,-1,48.728,57.232999)" stroke-width=".99628" stroke-linecap="round" stroke-miterlimit="10" stroke-linejoin="miter" fill="none" stroke="#394149" d="M-12.25774 1.39424 15.0926 4.27461"/>
<path transform="matrix(1,0,0,-1,48.728,57.232999)" stroke-width=".99628" stroke-linecap="round" stroke-miterlimit="10" stroke-linejoin="miter" fill="none" stroke="#394149" d="M-17.78122-13.25418-13.39899-20.76189"/>
<path transform="matrix(1,0,0,-1,48.728,57.232999)" stroke-width=".99628" stroke-linecap="round" stroke-miterlimit="10" stroke-linejoin="miter" fill="none" stroke="#394149" d="M16.98642-7.58492 5.68968-20.76189"/>
<use data-text="n" xlink:href="#font_0_1" transform="matrix(79.7011,0,0,-79.7011,108.941,81.341999)" fill="#394149"/>
<use data-text="e" xlink:href="#font_0_4" transform="matrix(79.7011,0,0,-79.7011,155.32704,81.341999)" fill="#394149"/>
<use data-text="t" xlink:href="#font_0_2" transform="matrix(79.7011,0,0,-79.7011,193.50388,81.341999)" fill="#394149"/>
<use data-text="z" xlink:href="#font_0_3" transform="matrix(79.7011,0,0,-79.7011,219.48644,81.341999)" fill="#394149"/>
</svg>
